<?xml version="1.0" encoding="UTF-8" standalone="no"?>
<!-- Created with Inkscape (http://www.inkscape.org/) -->

<svg
   xmlns:svg="http://www.w3.org/2000/svg"
   xmlns="http://www.w3.org/2000/svg"
   xmlns:xlink="http://www.w3.org/1999/xlink"
   xmlns:sodipodi="http://sodipodi.sourceforge.net/DTD/sodipodi-0.dtd"
   xmlns:inkscape="http://www.inkscape.org/namespaces/inkscape"
   id="svg3347"
   sodipodi:version="0.32"
   inkscape:version="0.47 r22583"
   width="100"
   height="100"
   sodipodi:docname="Nature Icon Magnetism.svg"
   inkscape:output_extension="org.inkscape.output.svg.inkscape"
   version="1.0">
  <defs
     id="defs3350">
    <linearGradient
       id="linearGradientMagnetism">
      <stop
         offset="0"
         id="stopMagnetism0"
         style="stop-color:#b051ff;stop-opacity:1;" />
      <stop
         id="stopMagnetism1"
         offset="1"
         style="stop-color:#8b00ff;stop-opacity:1;" />
    </linearGradient>
    <radialGradient
       gradientUnits="userSpaceOnUse"
       r="50"
       fy="49.999996"
       fx="49.999996"
       cy="49.999996"
       cx="49.999996"
       id="radialGradientMagnetism"
       xlink:href="#linearGradientMagnetism"
       inkscape:collect="always"
       gradientTransform="translate(3.7512207e-6,2.7512207e-6)" />
  </defs>
  <sodipodi:namedview
     inkscape:window-height="940"
     inkscape:window-width="1280"
     inkscape:pageshadow="2"
     inkscape:pageopacity="0.0"
     guidetolerance="10.0"
     gridtolerance="10.0"
     objecttolerance="50"
     borderopacity="1.0"
     bordercolor="#666666"
     pagecolor="#ffffff"
     id="base"
     showgrid="false"
     inkscape:zoom="1"
     inkscape:cx="43.219457"
     inkscape:cy="25.694789"
     inkscape:window-x="-8"
     inkscape:window-y="-8"
     inkscape:current-layer="svg3347"
     inkscape:snap-center="false"
     inkscape:object-nodes="false"
     inkscape:window-maximized="1"
     inkscape:snap-object-midpoints="true" />
  <path
     style="fill:url(#radialGradientMagnetism);fill-opacity:1;fill-rule:evenodd;stroke:#000000;stroke-width:5.6603775;stroke-linecap:butt;stroke-linejoin:miter;stroke-miterlimit:4;stroke-opacity:1;stroke-dasharray:none"
     d="m 2.8301888,31.132076 9.4339632,-9.433963 0,-9.433962 9.433962,0 9.433962,-9.4339622 37.73585,0 9.433963,9.4339622 9.433963,0 0,9.433962 9.433962,9.433963 0,37.73585 -9.433962,9.433962 0,9.433963 -9.433963,0 -9.433963,9.433961 -37.73585,0 -9.433962,-9.433961 -9.433962,0 0,-9.433963 -9.4339632,-9.433962 0,-37.73585 z"
     id="Magnetism icon"
     sodipodi:nodetypes="ccccccccccccccccccccc" />
  <path
     d="m 75.170712,49.49907 c -2.56931,6.178041 -6.102041,13.27441 -10.598192,21.289121 2.890361,-0.33394 5.379341,-0.66789 7.466911,-1.00184 -0.64238,-2.5046 -1.36498,-4.591761 -2.167821,-6.26151 l 4.094761,-1.502761 c 1.766309,3.8404 3.21152,8.43217 4.33563,13.775321 l -4.81736,1.50276 c -0.16064,-1.66975 -0.4015,-2.92204 -0.72261,-3.75691 -4.01452,0.83487 -8.02898,1.58624 -12.043401,2.25415 0.160531,0.66788 0.24082,1.25229 0.240871,1.75321 L 56.383,78.302001 c -4e-5,-1.16882 -0.16062,-2.337639 -0.48174,-3.50644 -3.53276,0.66788 -7.14577,1.25229 -10.83905,1.75321 -0.64235,1.33579 -1.20437,1.33579 -1.68608,0 l -0.96348,-4.007359 1.20435,0 c 2.24807,-3.84039 4.33559,-7.93123 6.26257,-12.272541 -2.24813,-2.67157 -4.7371,-4.925699 -7.46692,-6.76243 l 1.92695,-4.00737 c 0.48171,0.33397 0.88316,0.667921 1.20434,1.00185 2.56923,-5.00918 4.2553,-9.433969 5.05823,-13.27439 l -7.22604,0 0,-4.75875 8.91212,0 c -1.28467,-3.00548 -2.89045,-5.34311 -4.81736,-7.01288 l 3.85389,-3.00552 c 1.76632,1.16886 3.53269,3.58997 5.29909,7.26335 l -3.37215,2.75505 8.91211,0 c 1.44517,-3.67337 2.64951,-7.26329 3.61303,-10.76978 l 5.058221,2.25414 c 0.963429,0.83492 0.722549,1.33584 -0.72259,1.50276 -0.963531,2.17069 -2.087581,4.508321 -3.372161,7.01288 l 11.07993,0 0,4.75875 -9.87559,0 3.61302,1.75322 c 0.64226,0.66792 0.40139,1.08536 -0.72261,1.2523 -1.28468,3.339491 -3.2919,7.6808 -6.02169,13.02393 0.80284,0.66791 1.76631,1.50277 2.89042,2.5046 1.60573,-3.50643 2.97064,-6.7624 4.09475,-9.76795 l 4.09476,2.25415 c 0.64225,0.66791 0.40139,1.08534 -0.72261,1.25229 z m -16.13816,0.500921 c -2.408721,5.67712 -6.021731,12.940449 -10.83906,21.79005 2.24807,-0.166981 4.496169,-0.41744 6.744299,-0.751391 -0.64234,-2.504599 -1.284661,-4.59177 -1.92694,-6.2615 l 4.09476,-1.50276 c 0.96343,2.17065 1.766331,4.75875 2.408679,7.76426 l 0.963471,0 c 1.9269,-3.50643 3.69326,-7.01287 5.299099,-10.51933 -1.76642,-2.00367 -3.85394,-3.92386 -6.26257,-5.76058 2.89037,-5.34313 5.37934,-11.1872 7.46691,-17.53221 l -14.93382,0 3.372151,1.75322 c 0.64227,0.66792 0.40141,1.08536 -0.722601,1.2523 -0.802929,2.6716 -2.72988,6.76244 -5.78083,12.27255 0.96344,0.83489 1.9269,1.75323 2.89041,2.75506 1.28459,-3.00551 2.56922,-6.01102 3.85389,-9.01656 l 4.09475,2.5046 c 0.64228,0.66791 0.40141,1.08534 -0.7226,1.25229 z m -26.97722,27.801089 -4.094761,0 0,-23.79372 c -0.8029,1.83673 -2.00724,3.58994 -3.61302,5.25967 l -2.64955,-4.25783 c 4.81735,-5.34313 7.62748,-13.52482 8.43039,-24.5451 l -5.78084,0 0,-4.758739 18.0651,0 0,4.758739 -7.94864,0 c -0.32118,5.51017 -1.12407,10.35239 -2.40868,14.52669 l 9.152991,0 0,30.05522 -4.094761,0 0,-4.50828 -5.05823,0 z m 5.058229,-28.05154 -5.058229,0 0,16.02945 5.058229,0 z"
     style="font-size:60px;font-family:MS Gothic;-inkscape-font-specification:MS Gothic"
     id="Magnetism kanji" />
</svg>
