<?xml version="1.0" encoding="UTF-8" standalone="no"?>
<!-- Created with Inkscape (http://www.inkscape.org/) -->
<svg
   xmlns:svg="http://www.w3.org/2000/svg"
   xmlns="http://www.w3.org/2000/svg"
   xmlns:xlink="http://www.w3.org/1999/xlink"
   xmlns:sodipodi="http://sodipodi.sourceforge.net/DTD/sodipodi-0.dtd"
   xmlns:inkscape="http://www.inkscape.org/namespaces/inkscape"
   id="svg3347"
   sodipodi:version="0.32"
   inkscape:version="0.46"
   width="100"
   height="100"
   sodipodi:docname="Nature Icon Lava.svg"
   inkscape:output_extension="org.inkscape.output.svg.inkscape"
   version="1.0">
  <defs
     id="defs3350">
    <linearGradient
       id="linearGradientLava">
      <stop
         offset="0"
         id="stopLava0"
         style="stop-color:#ff0000;stop-opacity:1" />
      <stop
         id="stopLava1"
         offset="1"
         style="stop-color:#734a12;stop-opacity:1" />
    </linearGradient>
    <radialGradient
       gradientTransform="matrix(1.8867925,0,0,1.8867925,-166.98114,-690.30602)"
       r="26.5"
       fy="392.36218"
       fx="115"
       cy="392.36218"
       cx="115"
       gradientUnits="userSpaceOnUse"
       id="radialGradientLava"
       xlink:href="#linearGradientLava"
       inkscape:collect="always" />
  </defs>
  <sodipodi:namedview
     inkscape:window-height="930"
     inkscape:window-width="1280"
     inkscape:pageshadow="2"
     inkscape:pageopacity="0.0"
     guidetolerance="10.0"
     gridtolerance="10.0"
     objecttolerance="10.0"
     borderopacity="1.0"
     bordercolor="#666666"
     pagecolor="#ffffff"
     id="base"
     showgrid="false"
     inkscape:zoom="7.1699998"
     inkscape:cx="49.999998"
     inkscape:cy="50.000002"
     inkscape:window-x="-4"
     inkscape:window-y="-4"
     inkscape:current-layer="svg3347" />
  <path
     style="fill:url(#radialGradientLava);fill-opacity:1;fill-rule:evenodd;stroke:#000000;stroke-width:5.6603775;stroke-linecap:butt;stroke-linejoin:miter;stroke-miterlimit:4;stroke-dasharray:none;stroke-opacity:1"
     d="M 2.830185,31.132074 L 12.264148,21.698111 L 12.264148,12.264149 L 21.69811,12.264149 L 31.132072,2.830186 L 68.867922,2.830186 L 78.301885,12.264149 L 87.735848,12.264149 L 87.735848,21.698111 L 97.16981,31.132074 L 97.16981,68.867924 L 87.735848,78.301886 L 87.735848,87.735849 L 78.301885,87.735849 L 68.867922,97.169811 L 31.132072,97.169811 L 21.69811,87.735849 L 12.264148,87.735849 L 12.264148,78.301886 L 2.830185,68.867924 L 2.830185,31.132074 z"
     id="Lava icon"
     sodipodi:nodetypes="ccccccccccccccccccccc" />
  <path
     transform="scale(0.9893045,1.0108111)"
     style="font-size:62.32862091px;font-style:normal;font-variant:normal;font-weight:normal;font-stretch:normal;text-align:start;line-height:125%;writing-mode:lr-tb;text-anchor:start;fill:#000000;fill-opacity:1;stroke:none;stroke-width:1px;stroke-linecap:butt;stroke-linejoin:miter;stroke-opacity:1;font-family:MS Gothic;-inkscape-font-specification:MS Gothic"
     d="M 40.193076,58.230198 C 48.146438,55.308561 53.908584,49.546415 57.479529,40.943745 L 62.835895,41.674158 C 63.485107,42.323444 63.241636,42.729229 62.105482,42.891514 C 66.000973,49.384101 71.681962,54.334677 79.148464,57.743256 L 77.200695,62.612679 C 75.252869,61.801119 73.305101,60.664921 71.357386,59.204083 L 71.357386,76.490536 L 67.218376,76.490536 L 67.218376,74.299296 L 52.610106,74.299296 L 52.610106,77.464421 L 48.471096,77.464421 L 48.471096,59.204083 C 47.010241,60.502607 44.981316,61.719962 42.384316,62.85615 L 40.193076,58.230198 z M 43.11473,45.813168 C 47.172555,42.566915 50.013049,39.077165 51.636221,35.343908 L 56.018702,38.022091 C 56.667921,38.833694 56.343293,39.077165 55.044818,38.752504 C 53.097014,42.648072 50.175363,46.218979 46.279855,49.465236 L 43.11473,45.813168 z M 74.035569,48.24788 C 69.653037,45.975508 65.919816,42.323444 62.835895,37.291677 L 66.487963,35.100436 C 69.084939,38.833694 72.493532,41.836503 76.713752,44.10887 L 74.035569,48.24788 z M 27.776046,36.317792 C 27.776037,42.323444 27.370252,48.004433 26.55869,53.360775 L 21.932738,51.413005 C 22.581991,46.056665 22.987775,40.375677 23.150094,34.370023 L 28.262988,34.856965 C 28.912235,35.343944 28.749921,35.830886 27.776046,36.317792 L 27.776046,36.317792 z M 30.454229,22.439935 L 35.080181,22.439935 C 36.378677,22.602299 36.459834,23.089241 35.323652,23.900762 L 35.323652,38.022091 L 39.462662,33.152667 L 42.871259,36.074321 L 42.871259,28.283244 L 56.992587,28.283244 L 56.992587,21.466051 L 61.618539,21.466051 C 62.917008,21.628415 62.998165,22.115357 61.86201,22.926878 L 61.86201,28.283244 L 76.713752,28.283244 L 76.713752,39.239446 L 72.574742,39.239446 L 72.574742,32.178782 L 47.010269,32.178782 L 47.010269,39.726389 L 42.871259,39.726389 L 42.871259,37.048206 L 35.323652,42.891514 L 35.323652,57.012842 C 38.569915,59.772195 41.735037,63.261945 44.819028,67.482103 L 41.166961,71.621113 C 39.706113,68.699462 37.35256,65.53434 34.106296,62.125737 C 32.320828,68.618305 29.723805,73.650038 26.315219,77.22095 L 22.906622,72.838469 C 27.938351,67.319793 30.454217,60.015665 30.454229,50.926063 L 30.454229,22.439935 z M 69.409617,57.986727 C 65.676346,55.389718 62.430066,51.656497 59.67077,46.787053 C 57.722962,51.169555 54.476683,54.902776 49.931923,57.986727 L 69.409617,57.986727 L 69.409617,57.986727 z M 67.218376,70.403757 L 67.218376,61.882266 L 52.610106,61.882266 L 52.610106,70.403757 L 67.218376,70.403757 z"
     id="Lava kanji" />
</svg>
