<?xml version="1.0" encoding="UTF-8" standalone="no"?>
<!-- Created with Inkscape (http://www.inkscape.org/) -->

<svg
   xmlns:dc="http://purl.org/dc/elements/1.1/"
   xmlns:cc="http://creativecommons.org/ns#"
   xmlns:rdf="http://www.w3.org/1999/02/22-rdf-syntax-ns#"
   xmlns:svg="http://www.w3.org/2000/svg"
   xmlns="http://www.w3.org/2000/svg"
   xmlns:xlink="http://www.w3.org/1999/xlink"
   xmlns:sodipodi="http://sodipodi.sourceforge.net/DTD/sodipodi-0.dtd"
   xmlns:inkscape="http://www.inkscape.org/namespaces/inkscape"
   id="svg3347"
   sodipodi:version="0.32"
   inkscape:version="0.47 r22583"
   width="100"
   height="100"
   sodipodi:docname="Nature Icon Yin.svg"
   inkscape:output_extension="org.inkscape.output.svg.inkscape"
   version="1.0">
  <metadata
     id="metadata11">
    <rdf:RDF>
      <cc:Work
         rdf:about="">
        <dc:format>image/svg+xml</dc:format>
        <dc:type
           rdf:resource="http://purl.org/dc/dcmitype/StillImage" />
      </cc:Work>
    </rdf:RDF>
  </metadata>
  <defs
     id="defs3350">
    <inkscape:perspective
       sodipodi:type="inkscape:persp3d"
       inkscape:vp_x="0 : 50 : 1"
       inkscape:vp_y="0 : 1000 : 0"
       inkscape:vp_z="100 : 50 : 1"
       inkscape:persp3d-origin="50 : 33.333333 : 1"
       id="perspective13" />
    <linearGradient
       id="linearGradientYin">
      <stop
         offset="0"
         id="stopYin0"
         style="stop-color:#000000;stop-opacity:1;" />
      <stop
         id="stopYin1"
         offset="1"
         style="stop-color:#3c3c3c;stop-opacity:1;" />
    </linearGradient>
    <radialGradient
       gradientUnits="userSpaceOnUse"
       r="50"
       fy="50.000008"
       fx="49.999996"
       cy="50.000008"
       cx="49.999996"
       id="radialGradientYin"
       xlink:href="#linearGradientYin"
       inkscape:collect="always" />
  </defs>
  <sodipodi:namedview
     inkscape:window-height="924"
     inkscape:window-width="648"
     inkscape:pageshadow="2"
     inkscape:pageopacity="0.0"
     guidetolerance="10.0"
     gridtolerance="10.0"
     objecttolerance="10.0"
     borderopacity="1.0"
     bordercolor="#666666"
     pagecolor="#ffffff"
     id="base"
     showgrid="false"
     inkscape:zoom="1.31"
     inkscape:cx="78.159966"
     inkscape:cy="11.297845"
     inkscape:window-x="616"
     inkscape:window-y="0"
     inkscape:current-layer="svg3347"
     inkscape:window-maximized="0"
     inkscape:snap-object-midpoints="true" />
  <path
     style="fill:url(#radialGradientYin);fill-opacity:1;fill-rule:evenodd;stroke:#000000;stroke-width:5.6603775;stroke-linecap:butt;stroke-linejoin:miter;stroke-miterlimit:4;stroke-opacity:1;stroke-dasharray:none"
     d="m 2.830185,31.132081 28.301887,-28.3018875 37.73585,0 28.301888,28.3018875 0,37.73585 -28.301888,28.301888 -37.73585,0 -28.301887,-28.301888 0,-37.73585 z"
     id="Yin icon"
     sodipodi:nodetypes="ccccccccc" />
  <path
     d="m 38.492044,58.225406 c 0.853737,7.288077 -1.280646,10.932108 -6.403161,10.932104 l -2.049017,0 -0.768378,-4.615777 2.561261,0 c 1.195248,8e-6 1.792872,-1.295647 1.792893,-3.88697 -0.170766,-6.802178 -1.622148,-12.06578 -4.354154,-15.790816 l 5.122534,-15.304944 -7.427675,0 0,49.315931 -4.354155,0 0,-53.202901 13.830846,0 0.76838,-0.728807 3.585767,3.401099 -1.024505,0.48587 -2.817396,8.016875 c 9.562039,-2.591272 15.53832,-7.449981 17.928868,-14.576136 l 5.378669,1.214679 c 0.853706,0.323964 0.768338,0.728855 -0.256133,1.214677 2.731977,4.858757 9.135139,8.583766 19.209504,11.175039 l -2.049005,4.615777 C 73.069102,39.35744 69.654082,37.81885 66.922117,35.875329 l 0,3.158163 -17.416623,0 0,-3.158163 c -2.219792,1.943521 -5.805568,3.96798 -10.757317,6.073389 l -2.305139,-3.886968 -2.817396,7.288068 c 2.731998,3.886994 4.354135,8.178853 4.866402,12.875588 z M 57.445425,27.858454 c -1.878302,2.915268 -4.183439,5.344624 -6.915416,7.288068 l 15.367594,0 c -3.244315,-1.781488 -6.061702,-4.210843 -8.452178,-7.288068 z m 16.392109,50.044737 -2.817396,-3.401098 -28.430061,3.158163 c -0.512278,1.295651 -1.024535,1.295651 -1.53676,0 l -1.280637,-4.858712 7.939931,-0.242937 3.329644,-8.745681 -10.501194,0 0,-3.886972 38.419008,0 0,3.886972 -22.283024,0 -4.866412,8.745681 16.392109,-1.214677 c -2.390558,-2.267395 -3.756561,-3.401093 -4.098021,-3.4011 l 3.841898,-2.672291 c 4.097971,2.753276 7.598369,5.911437 10.501194,9.47449 z m -29.454575,-25.751176 16.648243,0 2.817396,-6.07339 -20.490142,0 0,-3.886971 22.0269,0 0.256123,-1.214676 4.866412,3.158162 -0.768379,0.728807 -3.841909,7.288068 7.939931,0 0,3.886971 -29.454575,0 z"
     style="font-size:63.45048523000001200px;fill:#ffffff;fill-opacity:1;font-family:MS Gothic;-inkscape-font-specification:MS Gothic"
     id="Yin kanji" />
</svg>
